<?xml version="1.0" encoding="UTF-8"?>
<svg version="1.1" xmlns="http://www.w3.org/2000/svg" width="586" height="106">
    <path
        d="M0 0 C2.81972931 2.36493426 2.97850831 3.8280665 3.4375 7.5 C3 11 3 11 1.5625 13.3125 C-1.53024783 15.34918759 -4.2657964 15.95352481 -7.87890625 16.60546875 C-10.17703245 16.98267063 -10.17703245 16.98267063 -13 18 C-14.55581318 23.83429943 -14.65838817 30.12703346 -13.3125 36 C-11.20654637 39.2090722 -8.59028315 39.64592544 -4.96484375 40.453125 C0.83959075 41.75938612 0.83959075 41.75938612 3 45 C3.56323703 49.3449714 3.45393941 51.31909089 1 55 C-2.54588858 57.36392572 -4.06525165 57.34701777 -8.1328125 56.78515625 C-10.72006737 55.69721017 -11.59108516 54.40811557 -13 52 C-13.60823749 49.45023624 -13.93749642 46.93752733 -14.27734375 44.33984375 C-15.21182316 41.31415095 -16.23978691 40.50032489 -19 39 C-21.41505994 38.57498955 -21.41505994 38.57498955 -23.9375 38.5625 C-28.44585673 38.2433243 -30.8125433 37.39309907 -34 34 C-35.61302813 30.77394374 -35.43628385 27.49698284 -35 24 C-33.75 21.125 -33.75 21.125 -31 19 C-29.03443259 18.59409782 -27.0514181 18.26910331 -25.0625 18 C-21.18375101 17.47086494 -19.21956129 17.14051923 -15.875 15 C-13.63494416 11.41591066 -13.24327273 8.37257798 -12.57421875 4.25390625 C-12 2 -12 2 -9.8125 -0.1875 C-6.10749383 -1.25783511 -3.70747718 -1.02985477 0 0 Z "
        fill="#FDCA11" transform="translate(97,27)" />
    <path
        d="M0 0 C2.8100346 1.79363911 4.50940468 3.01880935 6 6 C6.23477622 8.49558422 6.38150547 10.98970179 6.5234375 13.4921875 C7.09795654 16.51547622 7.78452791 17.85994824 10 20 C12.84269025 20.98179782 12.84269025 20.98179782 16 21.5 C21.55003667 22.53383036 21.55003667 22.53383036 23.84375 24.91015625 C25.48497096 27.87655224 25.54539846 29.65943441 25 33 C22.9375 35.875 22.9375 35.875 20 38 C16.12567163 38.61173606 14.04136187 38.64733306 10.6875 36.5625 C8.647568 33.46482548 8.09160791 30.74819891 7.4921875 27.12109375 C7.06547305 24.71658566 7.06547305 24.71658566 5 22 C2.04563697 20.89449642 -0.80556454 20.86534843 -3.9375 20.875 C-4.77152344 20.87242188 -5.60554688 20.86984375 -6.46484375 20.8671875 C-9.06216123 21.00325652 -11.46580044 21.42878507 -14 22 C-14.17015625 22.81984375 -14.3403125 23.6396875 -14.515625 24.484375 C-14.75796875 25.56203125 -15.0003125 26.6396875 -15.25 27.75 C-15.48203125 28.81734375 -15.7140625 29.8846875 -15.953125 30.984375 C-17.11324723 34.32621963 -18.22368845 35.84064657 -21 38 C-24.9491615 38.56416593 -27.0464384 38.65243688 -30.375 36.375 C-32.38506043 33.43721938 -32.92733979 31.5603504 -33 28 C-31.87890625 25.40625 -31.87890625 25.40625 -30 23 C-27.1875 21.99609375 -27.1875 21.99609375 -24 21.4375 C-19.66823078 20.72700903 -19.66823078 20.72700903 -16.1796875 18.28515625 C-14.73265032 15.48212066 -14.44602718 13.13197245 -14.125 10 C-13.27064752 4.35024973 -13.27064752 4.35024973 -10.875 1.25 C-7.10639848 -0.3885224 -4.04266262 -0.83303351 0 0 Z "
        fill="#F7B625" transform="translate(56,65)" />
    <path
        d="M0 0 C2.22046252 1.65231601 2.90860982 2.63746545 3.58984375 5.33984375 C3.76193359 6.62568359 3.76193359 6.62568359 3.9375 7.9375 C4.496425 10.95657519 4.93696051 12.89230753 6.5 15.5625 C9.83490848 17.48007237 12.79195113 17.4307264 16.5859375 17.66015625 C19.95232298 18.13406489 21.70597683 19.55797533 24 22 C25.60086627 25.20173254 25.49917089 28.52577059 25 32 C23.20636089 34.8100346 21.98119065 36.50940468 19 38 C17.37664577 38.12726645 15.7511442 38.22805631 14.125 38.3125 C11.00678822 38.62701704 9.24013487 38.86192245 6.5 40.4375 C4.9291603 43.12101783 4.56813001 44.96174532 4.0625 48 C3.45833412 51.49590002 3.13242309 52.83252374 0.875 55.6875 C-3.02482166 57.46785337 -5.95542287 57.35694687 -10 56 C-12.63091646 53.78016424 -12.93215998 52.45549727 -13.4375 49.0625 C-12.85745196 45.00216371 -12.13298217 43.69582187 -9 41 C-6.16964491 40.1053235 -3.37459635 39.43742154 -0.4609375 38.87109375 C2.07459965 38.22438778 2.07459965 38.22438778 3.3203125 36.28515625 C4.16601504 33.441846 4.26482993 30.9659858 4.25 28 C4.25515625 26.96875 4.2603125 25.9375 4.265625 24.875 C3.99515803 21.94759285 3.79128509 20.32655076 2 18 C-0.5002468 17.04682757 -0.5002468 17.04682757 -3.375 16.5625 C-7.06113038 15.66391514 -8.76436061 15.20275948 -11.6875 12.6875 C-13.27867382 9.42938219 -13.60927471 7.57948893 -13 4 C-8.89132915 -1.06736072 -6.29590651 -1.325454 0 0 Z "
        fill="#F29D36" transform="translate(17,27)" />
    <path
        d="M0 0 C4.47090842 3.53399011 5.00085717 7.17525951 6.09375 12.5390625 C6.77820822 15.07270264 6.77820822 15.07270264 8.71875 16.3203125 C11.56048373 17.16699344 14.03528588 17.26482357 17 17.25 C18.03125 17.25515625 19.0625 17.2603125 20.125 17.265625 C22.97473088 17.00233465 24.61130751 16.53205794 27 15 C28.81740915 12.41736594 29.02719819 10.69538024 29.3125 7.5 C30 4 30 4 32.1875 1.5625 C35.56275179 -0.31263988 37.2007634 -0.71235686 41 0 C44.32878632 2.46040728 45.79301948 3.89610387 46.5625 8 C45.82694629 11.92295312 45.05279064 13.38332231 42 16 C39.463502 16.66151194 36.93258914 17.0737186 34.34765625 17.50390625 C31.86095215 17.90028504 31.86095215 17.90028504 29.4375 19.5 C27.51992763 22.83490848 27.5692736 25.79195113 27.33984375 29.5859375 C26.86593511 32.95232298 25.44202467 34.70597683 23 37 C19.77394374 38.61302813 16.49698284 38.43628385 13 38 C10.125 36.75 10.125 36.75 8 34 C7.30315477 30.95767571 6.87289955 27.97950783 6.5546875 24.875 C5.93594328 21.66798768 5.37328886 20.2357807 3 18 C-0.04346224 17.05737211 -3.05137969 16.55349596 -6.1875 16.00390625 C-9 15 -9 15 -10.87890625 12.59375 C-12.34201789 9.20871121 -12.11467437 7.49264635 -11 4 C-7.97241271 -0.42493527 -5.18096997 -0.74013857 0 0 Z "
        fill="#F5AA2B" transform="translate(35,7)" />
    <path
        d="M0 0 C3.5631576 2.82685935 4.64458911 5.24268144 5.625 9.625 C6.4712912 13.7600872 6.4712912 13.7600872 9 17 C9.125 20.125 9.125 20.125 9 23 C6 22 6 22 4.6875 20.02734375 C1.87122639 16.64390392 -2.01408967 16.73527595 -6.1875 16.00390625 C-9 15 -9 15 -10.87890625 12.59375 C-12.34201789 9.20871121 -12.11467437 7.49264635 -11 4 C-7.97241271 -0.42493527 -5.18096997 -0.74013857 0 0 Z "
        fill="#FBD31A" transform="translate(35,7)" />
    <path
        d="M0 0 C0.53496094 0.6290625 1.06992187 1.258125 1.62109375 1.90625 C5.12516753 4.99029523 8.7313255 5.24989058 13.22265625 6.09375 C16.45410257 7.14817412 17.37055446 8.06480349 19 11 C19.5 13.9375 19.5 13.9375 19 17 C16.9375 19.875 16.9375 19.875 14 22 C10.12567163 22.61173606 8.04136187 22.64733306 4.6875 20.5625 C2.647568 17.46482548 2.09160791 14.74819891 1.4921875 11.12109375 C1.06547305 8.71658566 1.06547305 8.71658566 -1 6 C-3.05925139 5.27617533 -3.05925139 5.27617533 -5 5 C-5 4.34 -5 3.68 -5 3 C-2.5 1.375 -2.5 1.375 0 0 Z "
        fill="#EB7742" transform="translate(62,81)" />
    <path
        d="M0 0 C3.32878632 2.46040728 4.79301948 3.89610387 5.5625 8 C4.82694629 11.92295312 4.05279064 13.38332231 1 16 C-1.51718764 16.70464275 -3.99918367 17.13447578 -6.58203125 17.53125 C-9.5065464 18.09819963 -11.60752126 19.24551559 -14 21 C-14.6875 18.8125 -14.6875 18.8125 -15 16 C-14.02616054 14.31791365 -13.02304948 12.65261839 -12 11 C-11.87625 9.824375 -11.7525 8.64875 -11.625 7.4375 C-11 4 -11 4 -8.8125 1.5625 C-5.43724821 -0.31263988 -3.7992366 -0.71235686 0 0 Z "
        fill="#EE773E" transform="translate(76,7)" />
    <path
        d="M0 0 C0.54398437 0.4640625 1.08796875 0.928125 1.6484375 1.40625 C5.04586376 3.70882461 8.57709911 4.2640116 12.5390625 5.15625 C15 6 15 6 17 9 C17.56323703 13.3449714 17.45393941 15.31909089 15 19 C11.45411142 21.36392572 9.93474835 21.34701777 5.8671875 20.78515625 C3.28177952 19.69798679 2.40949116 18.40491814 1 16 C0.41015625 13.5625 0.41015625 13.5625 0.0625 11 C-0.65604922 6.83609938 -1.46303668 4.5937731 -5 2 C-4.360625 2.165 -3.72125 2.33 -3.0625 2.5 C-1.19173179 3.03926667 -1.19173179 3.03926667 0 3 C0 2.01 0 1.02 0 0 Z "
        fill="#EB7D40" transform="translate(83,63)" />
    <path
        d="M0 0 C2.81972931 2.36493426 2.97850831 3.8280665 3.4375 7.5 C3 11 3 11 1.5625 13.3125 C-2.083375 15.71344207 -5.75505667 16.24517733 -10 17 C-11.33598121 17.32255711 -12.67029787 17.65246421 -14 18 C-14 17.34 -14 16.68 -14 16 C-14.66 15.67 -15.32 15.34 -16 15 C-15.34 14.01 -14.68 13.02 -14 12 C-13.6809235 10.34189305 -13.4140868 8.67325637 -13.1875 7 C-12.29448198 2.29448198 -12.29448198 2.29448198 -9.8125 -0.1875 C-6.10749383 -1.25783511 -3.70747718 -1.02985477 0 0 Z "
        fill="#F0873D" transform="translate(97,27)" />
    <path
        d="M0 0 C0.90865631 4.9471288 1.29392104 9.10158463 0 14 C-2.0625 16.5 -2.0625 16.5 -5 18 C-8.93118221 18.30652493 -11.9549713 17.88174297 -15 15.3125 C-16.3251184 12.2481637 -16.47322484 10.3125739 -16 7 C-14.40216631 3.94327469 -13.13368569 2.39494827 -9.8359375 1.24609375 C-6.49030893 0.46690013 -3.4407995 0 0 0 Z "
        fill="#FBC615" transform="translate(20,66)" />
    <path
        d="M0 0 C2.55649744 1.77584204 2.95924339 2.78515445 3.546875 5.8828125 C3.64742187 7.48769531 3.64742187 7.48769531 3.75 9.125 C3.82734375 10.20007813 3.9046875 11.27515625 3.984375 12.3828125 C3.98953125 13.24648438 3.9946875 14.11015625 4 15 C2.35962605 16.64037395 0.50523159 16.24911331 -1.75 16.3125 C-5.48290476 16.28579825 -6.7881884 16.12968057 -10.0625 14.125 C-12.39191937 11.57015295 -12.93797265 10.57065158 -13.3125 7.125 C-13 4 -13 4 -11.125 1.6875 C-7.14844168 -1.47035514 -4.94564117 -1.04118761 0 0 Z "
        fill="#FAC917" transform="translate(17,27)" />
    <path
        d="M0 0 C3.67852334 0.25080841 5.55599012 0.61441247 8.375 3.0625 C10.47588328 6.86025054 10.84977711 9.75111443 10 14 C8.0572272 17.38186376 7.00642921 18.70264591 3.25 19.8125 C2.5075 19.874375 1.765 19.93625 1 20 C-2.01509833 15.47735251 -2.55185437 10.15504619 -1.61328125 4.7890625 C-1.14746058 3.17025306 -0.58393141 1.58004968 0 0 Z "
        fill="#EE7B40" transform="translate(32,45)" />
    <path
        d="M0 0 C1.875 1.6875 1.875 1.6875 3 4 C2.92897215 7.4803645 2.61415498 9.29485909 0.3125 11.9375 C-2.92794747 13.42635424 -4.64905842 13.14074607 -8 12 C-10 9.8125 -10 9.8125 -11 7 C-10.40382837 3.6216941 -9.90969684 1.7214837 -7.1875 -0.4375 C-4.35421829 -1.16605815 -2.75449091 -0.98879161 0 0 Z "
        fill="#FAB918" transform="translate(56,49)" />
    <path
        d="M0 0 C1.9375 1.0625 1.9375 1.0625 3 3 C3.36528977 6.4093712 3.6140629 8.88023824 1.9375 11.9375 C-1.11976176 13.6140629 -3.5906288 13.36528977 -7 13 C-8.9375 11.9375 -8.9375 11.9375 -10 10 C-10.36528977 6.5906288 -10.6140629 4.11976176 -8.9375 1.0625 C-5.88023824 -0.6140629 -3.4093712 -0.36528977 0 0 Z "
        fill="#FCC91C" transform="translate(35,28)" />
    <path
        d="M0 0 C1.875 1.0625 1.875 1.0625 3 3 C3.36528977 6.4093712 3.6140629 8.88023824 1.9375 11.9375 C-1.11976176 13.6140629 -3.5906288 13.36528977 -7 13 C-8.9375 11.875 -8.9375 11.875 -10 10 C-10.54068562 6.36968224 -10.46379841 4.67785921 -8.375 1.625 C-5.32214079 -0.46379841 -3.63031776 -0.54068562 0 0 Z "
        fill="#EB7C3C" transform="translate(35,69)" />
    <path
        d="M0 0 C3.5625 0.3125 3.5625 0.3125 5.5 1.375 C7.1765629 4.43226176 6.92778977 6.9031288 6.5625 10.3125 C5.5 12.25 5.5 12.25 3.5625 13.3125 C0.0625 13.75 0.0625 13.75 -3.4375 13.3125 C-5.4375 11.75 -5.4375 11.75 -6.4375 9.3125 C-5.98395669 0.54399606 -5.98395669 0.54399606 0 0 Z "
        fill="#FBC921" transform="translate(72.4375,27.6875)" />
    <path
        d="M0 0 C1.875 1.0625 1.875 1.0625 3 3 C3.36528977 6.4093712 3.6140629 8.88023824 1.9375 11.9375 C-1.15493758 13.63335287 -3.55514741 13.43060657 -7 13 C-9 11.4375 -9 11.4375 -10 9 C-9.875 5.375 -9.875 5.375 -9 2 C-5.53076119 -0.31282587 -4.07794425 -0.42478586 0 0 Z "
        fill="#F6A733" transform="translate(76,69)" />
    <path
        d="M0 0 C1 3 1 3 0.5625 5.0625 C-0.76697998 12.00533991 -0.02816714 19.05987179 1 26 C0.01 25.34 -0.98 24.68 -2 24 C-3.65 23.67 -5.3 23.34 -7 23 C-7 16.4 -7 9.8 -7 3 C-4.69 2.01 -2.38 1.02 0 0 Z "
        fill="#F6B128" transform="translate(83,42)" />
    <path
        d="M0 0 C3.32841026 1.88127537 5.57866624 3.23060792 7.4375 6.625 C8.20264422 11.21586531 7.66982394 15.41985252 7 20 C5.125 19.6875 5.125 19.6875 3 19 C0.98121073 15.9718161 0.63955404 14.55411669 0.125 11.0625 C-0.63027336 6.8902238 -1.45377252 4.60056682 -5 2 C-4.360625 2.165 -3.72125 2.33 -3.0625 2.5 C-1.19173179 3.03926667 -1.19173179 3.03926667 0 3 C0 2.01 0 1.02 0 0 Z "
        fill="#F48F3D" transform="translate(83,63)" />
    <path
        d="M0 0 C0.99 0.33 1.98 0.66 3 1 C2.34 1 1.68 1 1 1 C0.67 2.98 0.34 4.96 0 7 C0.66 7 1.32 7 2 7 C2 8.98 2 10.96 2 13 C2.66 13 3.32 13 4 13 C4 13.66 4 14.32 4 15 C4.99 15.33 5.98 15.66 7 16 C0.70744681 16.48404255 0.70744681 16.48404255 -2.375 14.375 C-4.38506043 11.43721938 -4.92733979 9.5603504 -5 6 C-2.86956522 1.43478261 -2.86956522 1.43478261 0 0 Z "
        fill="#FCE631" transform="translate(28,87)" />
    <path
        d="M0 0 C0.66 0.33 1.32 0.66 2 1 C1.814375 1.556875 1.62875 2.11375 1.4375 2.6875 C0.84408398 5.03287582 0.84408398 5.03287582 1.5 7.5 C2.02928264 10.14641318 1.76132882 11.46223728 1 14 C1 14.99 1 15.98 1 17 C1.66 17 2.32 17 3 17 C2.67 17.66 2.34 18.32 2 19 C-2.875 15.25 -2.875 15.25 -4 13 C-4.58394161 5.87591241 -4.58394161 5.87591241 -2 2 C-1.34 1.34 -0.68 0.68 0 0 Z "
        fill="#FBDD26" transform="translate(66,46)" />
    <path
        d="M0 0 C2.98828314 0.32305764 4.61321245 0.65189121 6.875 2.6875 C8.43700842 5.89829508 8.07389392 7.63513237 7 11 C5.1875 12.9375 5.1875 12.9375 3 14 C0.75 13.6875 0.75 13.6875 -1 13 C-0.34 13 0.32 13 1 13 C1.33 9.04 1.66 5.08 2 1 C1.34 0.67 0.68 0.34 0 0 Z "
        fill="#F39F39" transform="translate(51,48)" />
    <path
        d="M0 0 C6.34507042 -0.35915493 6.34507042 -0.35915493 8.9375 1.0625 C10.6140629 4.11976176 10.36528977 6.5906288 10 10 C8.6875 11.9375 8.6875 11.9375 7 13 C6.01 13 5.02 13 4 13 C4 9.04 4 5.08 4 1 C2.68 0.67 1.36 0.34 0 0 Z "
        fill="#EC8C3C" transform="translate(28,28)" />
    <path
        d="M0 0 C6.34507042 -0.35915493 6.34507042 -0.35915493 8.9375 1.0625 C10.6140629 4.11976176 10.36528977 6.5906288 10 10 C8.6875 11.9375 8.6875 11.9375 7 13 C6.01 13 5.02 13 4 13 C4 9.04 4 5.08 4 1 C2.68 0.67 1.36 0.34 0 0 Z "
        fill="#F59839" transform="translate(69,28)" />
    <path
        d="M0 0 C0.66 0 1.32 0 2 0 C2 4.62 2 9.24 2 14 C0.68 14 -0.64 14 -2 14 C-4.34168764 10.48746854 -4.49623677 9.13530644 -4 5 C-2.125 2.125 -2.125 2.125 0 0 Z "
        fill="#FCE335" transform="translate(8,68)" />
    <path
        d="M0 0 C4.875 2.75 4.875 2.75 6 5 C6.42798954 8.85190583 6.28105253 10.55419254 4.1875 13.875 C2 16 2 16 -1 16 C-1 14.35 -1 12.7 -1 11 C-0.34 11 0.32 11 1 11 C1.12469099 5.42169984 1.12469099 5.42169984 0 0 Z "
        fill="#E0583F" transform="translate(75,7)" />
    <path
        d="M0 0 C0 3.96 0 7.92 0 12 C-5 11 -5 11 -6 10 C-6.41386733 6.27519405 -6.48847952 4.61874073 -4.125 1.625 C-2 0 -2 0 0 0 Z "
        fill="#FACF1C" transform="translate(31,69)" />
    <path
        d="M0 0 C0 3.96 0 7.92 0 12 C-1.65 11.67 -3.3 11.34 -5 11 C-5.75 7.75 -5.75 7.75 -6 4 C-3.02564103 0 -3.02564103 0 0 0 Z "
        fill="#FBCF21" transform="translate(72,69)" />
    <path
        d="M0 0 C4.875 2.75 4.875 2.75 6 5 C6.28997796 8.33474654 6.32275723 10.38676126 4.75 13.375 C3 15 3 15 -1 15 C-1 14.01 -1 13.02 -1 12 C-0.34 12 0.32 12 1 12 C1.33 8.7 1.66 5.4 2 2 C1.34 2 0.68 2 0 2 C0 1.34 0 0.68 0 0 Z "
        fill="#DC593D" transform="translate(75,87)" />
    <path
        d="M0 0 C1.875 0.3125 1.875 0.3125 4 1 C6.48038907 4.7205836 6.46337203 6.59796571 6 11 C3.78136971 13.90717073 2.48055071 14.83981643 -1 16 C-1 15.01 -1 14.02 -1 13 C-0.01 13 0.98 13 2 13 C1.91621094 12.30132812 1.83242187 11.60265625 1.74609375 10.8828125 C1.64425781 9.97273438 1.54242188 9.06265625 1.4375 8.125 C1.33308594 7.22007813 1.22867188 6.31515625 1.12109375 5.3828125 C1 3 1 3 2 1 C1.34 0.67 0.68 0.34 0 0 Z "
        fill="#E55F40" transform="translate(94,27)" />
    <path
        d="M0 0 C3 1 3 1 4 3 C4.45833333 9.1875 4.45833333 9.1875 2.625 12.4375 C1 14 1 14 -1 14 C-0.67 9.38 -0.34 4.76 0 0 Z "
        fill="#E75C3E" transform="translate(96,69)" />
    <path
        d="M0 0 C1.3609623 2.7219246 0.70366248 4.1831957 0.0625 7.125 C-0.13214844 8.03507812 -0.32679687 8.94515625 -0.52734375 9.8828125 C-0.68332031 10.58148438 -0.83929688 11.28015625 -1 12 C-0.34 12 0.32 12 1 12 C1.33 12.99 1.66 13.98 2 15 C-1.16115776 13.63016497 -1.9927092 13.0109362 -4 10 C-4.375 7.0625 -4.375 7.0625 -4 4 C-2 1.625 -2 1.625 0 0 Z "
        fill="#FBE23B" transform="translate(8,27)" />
    <path
        d="M0 0 C0.99 0 1.98 0 3 0 C3 1.98 3 3.96 3 6 C3.66 6 4.32 6 5 6 C5 6.66 5 7.32 5 8 C5.99 8.33 6.98 8.66 8 9 C1.25 9.125 1.25 9.125 -1 8 C-0.67 5.36 -0.34 2.72 0 0 Z "
        fill="#FCDF27" transform="translate(27,94)" />
    <path
        d="M0 0 C1.32 0.99 2.64 1.98 4 3 C4.25 6.6875 4.25 6.6875 4 10 C2.02 10.99 2.02 10.99 0 12 C0 8.04 0 4.08 0 0 Z "
        fill="#E87B41" transform="translate(75,69)" />
    <path
        d="M0 0 C0.85580298 2.39624834 1.18971474 3.5476033 0.1875 5.9375 C-0.204375 6.618125 -0.59625 7.29875 -1 8 C-1.67966676 9.66140763 -2.34938905 11.32700041 -3 13 C-5 10 -5 10 -4.875 7.0625 C-3.89462199 3.63117696 -2.69937452 2.26399153 0 0 Z "
        fill="#FAEA3A" transform="translate(28,7)" />
    <path
        d="M0 0 C0.66 0 1.32 0 2 0 C2.66 4.29 3.32 8.58 4 13 C1.69 13 -0.62 13 -3 13 C-2.01 12.67 -1.02 12.34 0 12 C0 8.04 0 4.08 0 0 Z "
        fill="#F2A630" transform="translate(31,69)" />
    <path
        d="M0 0 C2.046875 1.609375 2.046875 1.609375 4 4 C3.953125 7.015625 3.953125 7.015625 3.25 10.25 C3.02828125 11.32765625 2.8065625 12.4053125 2.578125 13.515625 C2.38734375 14.33546875 2.1965625 15.1553125 2 16 C1.67 16 1.34 16 1 16 C0.85304688 14.98679687 0.85304688 14.98679687 0.703125 13.953125 C-0.37079086 7.04032595 -0.37079086 7.04032595 -5 2 C-4.360625 2.165 -3.72125 2.33 -3.0625 2.5 C-1.19173179 3.03926667 -1.19173179 3.03926667 0 3 C0 2.01 0 1.02 0 0 Z "
        fill="#ECA144" transform="translate(83,63)" />
    <path
        d="M0 0 C1.32 1.32 2.64 2.64 4 4 C3.9375 7.125 3.9375 7.125 3 10 C2.01 10.66 1.02 11.32 0 12 C0 8.04 0 4.08 0 0 Z "
        fill="#E8763C" transform="translate(55,49)" />
    <path
        d="M0 0 C0.33 0 0.66 0 1 0 C1 3.96 1 7.92 1 12 C-2 10 -2 10 -2.875 7.6875 C-3.03459055 4.25630324 -2.01878604 2.71759659 0 0 Z "
        fill="#F8DC2E" transform="translate(48,49)" />
    <path
        d="M0 0 C0.66 0 1.32 0 2 0 C3.12256131 2.24512262 3.13413762 3.51456649 3.125 6 C3.12886719 7.051875 3.12886719 7.051875 3.1328125 8.125 C3 10 3 10 2 12 C1.34 12 0.68 12 0 12 C0 8.04 0 4.08 0 0 Z "
        fill="#E1563D" transform="translate(39,49)" />
    <path
        d="M0 0 C0.66 0 1.32 0 2 0 C2.02705729 1.77074917 2.04642195 3.54161711 2.0625 5.3125 C2.07410156 6.29863281 2.08570312 7.28476563 2.09765625 8.30078125 C2 11 2 11 1 14 C0.34 14 -0.32 14 -1 14 C-0.67 9.38 -0.34 4.76 0 0 Z "
        fill="#ED6E3B" transform="translate(94,69)" />
    <path d="M0 0 C1.32 0.33 2.64 0.66 4 1 C3.67 4.96 3.34 8.92 3 13 C2.01 12.67 1.02 12.34 0 12 C0 8.04 0 4.08 0 0 Z "
        fill="#F0673D" transform="translate(36,48)" />
    <path
        d="M0 0 C1.32 1.65 2.64 3.3 4 5 C2.3125 6.125 2.3125 6.125 0 7 C-2.75 6.125 -2.75 6.125 -5 5 C-5 4.34 -5 3.68 -5 3 C-2.5 1.375 -2.5 1.375 0 0 Z "
        fill="#EA9444" transform="translate(62,81)" />
    <path
        d="M0 0 C0.66 0.33 1.32 0.66 2 1 C2 4.3 2 7.6 2 11 C1.01 11.33 0.02 11.66 -1 12 C-1.02698189 10.37509046 -1.04638757 8.75005367 -1.0625 7.125 C-1.07410156 6.22007813 -1.08570313 5.31515625 -1.09765625 4.3828125 C-1 2 -1 2 0 0 Z "
        fill="#FDDC21" transform="translate(8,71)" />
    <path
        d="M0 0 C0.99 0 1.98 0 3 0 C4 3 4 3 2.5625 6.1875 C1.7890625 7.5796875 1.7890625 7.5796875 1 9 C-0.625 7.3125 -0.625 7.3125 -2 5 C-1.1875 2.25 -1.1875 2.25 0 0 Z "
        fill="#F6AD25" transform="translate(21,61)" />
    <path
        d="M0 0 C1.5625 1.1875 1.5625 1.1875 3 3 C2.8125 5.625 2.8125 5.625 2 8 C1.01 8.495 1.01 8.495 0 9 C-0.28875 8.38125 -0.5775 7.7625 -0.875 7.125 C-1.93720042 4.86674235 -1.93720042 4.86674235 -4 3 C-3.01 2.67 -2.02 2.34 -1 2 C-0.67 1.34 -0.34 0.68 0 0 Z "
        fill="#F8AE29" transform="translate(21,40)" />
    <path
        d="M0 0 C-0.66 1.32 -1.32 2.64 -2 4 C-8.625 3.25 -8.625 3.25 -12 1 C-10.37512529 0.83211627 -8.75009558 0.66573213 -7.125 0.5 C-6.22007813 0.4071875 -5.31515625 0.314375 -4.3828125 0.21875 C-2 0 -2 0 0 0 Z "
        fill="#E7A843" transform="translate(60,24)" />
    <path
        d="M0 0 C0.99 0.33 1.98 0.66 3 1 C3 4.3 3 7.6 3 11 C0 8 0 8 -0.29296875 5.95703125 C-0.1953125 3.97135417 -0.09765625 1.98567708 0 0 Z "
        fill="#FCE641" transform="translate(62,51)" />
    <path
        d="M0 0 C1.09658936 3.28976808 0.79953138 4.71303767 0 8 C-0.99 8 -1.98 8 -3 8 C-2.74438677 5.6568787 -2.40729228 3.32156597 -2 1 C-1.34 0.67 -0.68 0.34 0 0 Z "
        fill="#F6A62D" transform="translate(83,42)" />
    <path
        d="M0 0 C3 1 3 1 4 3 C6.01669827 4.13350534 6.01669827 4.13350534 8 5 C5.69 5 3.38 5 1 5 C0.34 3.68 -0.32 2.36 -1 1 C-0.67 0.67 -0.34 0.34 0 0 Z "
        fill="#DE7A4C" transform="translate(68,98)" />
    <path
        d="M0 0 C0.66 0.33 1.32 0.66 2 1 C2 2.98 2 4.96 2 7 C-1 6 -1 6 -2.1875 3.9375 C-2.5896875 2.9784375 -2.5896875 2.9784375 -3 2 C-2.01 1.34 -1.02 0.68 0 0 Z "
        fill="#F9C217" transform="translate(42,23)" />
    <path
        d="M0 0 C0.66 0.33 1.32 0.66 2 1 C2.1875 4.375 2.1875 4.375 2 8 C1.01 8.66 0.02 9.32 -1 10 C-0.67 6.7 -0.34 3.4 0 0 Z "
        fill="#E4693C" transform="translate(77,30)" />
    <path
        d="M0 0 C0.66 0.33 1.32 0.66 2 1 C1.67 3.64 1.34 6.28 1 9 C0.34 8.34 -0.32 7.68 -1 7 C-0.625 3.375 -0.625 3.375 0 0 Z "
        fill="#FDF041" transform="translate(24,90)" />
</svg>